{"glyphs":{"0":{"ha":631,"x_min":51,"x_max":583,"o":"m 321 931 q 418 901 375 931 q 494 822 461 871 q 565 654 546 749 q 583 468 583 560 q 578 361 583 415 q 558 256 572 307 q 523 159 544 206 q 468 75 501 113 q 398 15 436 39 q 315 -8 360 -8 q 223 17 263 -8 q 150 88 183 42 q 102 172 121 126 q 72 268 83 218 q 56 369 61 318 q 51 471 51 421 q 76 671 51 575 q 164 842 101 767 q 235 906 196 881 q 321 931 274 931 m 319 910 q 251 881 275 910 q 214 804 228 853 q 201 732 206 772 q 194 649 196 692 q 191 565 192 606 q 190 490 190 524 l 190 458 q 191 372 190 421 q 194 274 192 324 q 201 179 196 224 q 214 108 206 135 q 251 40 228 68 q 311 13 274 13 q 382 43 360 13 q 417 126 404 74 q 429 206 425 163 q 435 295 433 250 q 438 385 438 340 q 438 469 438 431 q 438 549 438 506 q 435 638 438 593 q 429 725 433 682 q 418 801 425 768 q 385 881 407 853 q 319 910 364 910 z "},"1":{"ha":631,"x_min":113,"x_max":524,"o":"m 424 926 l 424 24 l 524 24 l 524 0 l 192 0 q 191 13 192 7 q 190 24 190 18 l 293 24 l 292 806 q 203 742 251 778 q 113 679 154 707 l 113 710 q 243 813 179 758 q 365 926 307 868 l 424 926 z "},"2":{"ha":631,"x_min":36,"x_max":576,"o":"m 556 257 l 576 257 q 563 151 568 201 q 553 46 558 101 q 551 23 553 35 q 547 0 549 11 l 36 0 q 64 76 46 42 q 104 140 82 110 q 152 197 126 169 q 206 251 178 224 q 278 331 243 290 q 342 421 314 372 q 388 529 371 469 q 406 667 406 589 q 397 754 406 711 q 368 831 388 797 q 319 885 349 864 q 247 906 289 906 q 193 893 222 906 q 140 858 164 881 q 99 806 115 836 q 83 740 83 775 q 90 713 83 717 q 107 710 96 708 l 115 710 q 160 694 143 710 q 176 643 176 679 q 160 594 176 614 q 121 575 144 575 q 88 585 101 575 q 66 613 75 596 q 53 649 57 629 q 49 689 49 669 q 69 794 49 749 q 122 871 89 840 q 199 917 156 901 q 288 932 242 932 q 385 916 338 932 q 471 867 433 900 q 531 786 508 835 q 554 672 554 738 q 532 552 554 606 q 474 454 510 499 q 392 371 438 410 q 301 294 347 332 q 217 224 258 260 q 136 140 176 189 l 535 139 l 556 257 z "},"3":{"ha":631,"x_min":44,"x_max":579,"o":"m 117 496 l 129 496 l 129 510 l 124 510 l 117 496 m 428 251 q 403 395 428 343 q 338 473 379 447 q 243 504 297 499 q 129 510 189 510 q 131 531 131 517 l 151 531 q 248 533 201 531 q 331 556 294 536 q 388 617 367 575 q 410 736 410 658 q 376 860 410 813 q 276 908 343 908 q 238 903 261 908 q 193 886 215 897 q 153 858 171 875 q 135 821 136 842 l 138 804 l 160 808 q 194 788 182 799 q 207 749 207 776 q 190 703 207 722 q 153 685 174 685 q 111 709 126 685 q 96 764 96 733 q 116 842 96 810 q 167 894 136 874 q 233 923 197 914 q 301 932 269 932 q 382 921 339 932 q 462 886 425 910 q 522 824 499 863 q 546 731 546 786 q 531 653 546 686 q 492 595 517 619 q 435 553 468 571 q 364 521 401 535 q 447 484 407 506 q 515 433 486 463 q 562 363 544 403 q 579 269 579 324 q 549 148 579 200 q 474 61 519 96 q 373 9 428 26 q 268 -8 318 -8 q 196 0 235 -8 q 124 28 157 8 q 67 81 90 49 q 44 163 44 114 q 63 234 44 203 q 117 265 81 265 q 158 246 142 265 q 174 197 174 226 q 149 142 174 160 q 94 133 125 125 l 83 119 q 106 68 85 88 q 157 38 128 49 q 215 22 186 26 q 261 18 244 18 q 330 39 299 18 q 383 93 361 60 q 416 168 404 126 q 428 251 428 210 z "},"4":{"ha":631,"x_min":17,"x_max":581,"o":"m 581 422 l 581 326 l 471 326 l 471 24 l 578 24 l 578 0 l 229 0 l 229 24 l 333 24 l 333 326 l 26 326 q 17 332 17 326 l 21 340 l 21 339 l 422 949 l 446 949 l 107 422 l 336 422 l 336 635 l 471 818 l 471 422 l 581 422 z "},"5":{"ha":631,"x_min":44,"x_max":585,"o":"m 94 496 q 115 681 115 585 q 112 740 115 710 q 106 799 108 769 q 99 853 101 826 q 96 903 96 879 q 115 920 96 914 q 158 930 133 926 q 207 934 183 933 q 239 935 231 935 q 295 931 267 935 q 351 922 324 928 q 408 914 381 918 q 465 910 436 910 q 481 924 478 910 q 485 949 485 938 l 504 949 l 504 925 q 469 814 504 857 q 376 771 435 771 q 336 774 357 771 q 294 781 315 776 q 252 788 274 785 q 208 792 231 792 q 174 787 192 792 q 135 771 156 782 q 137 741 136 757 q 138 711 138 725 q 135 674 138 693 q 132 635 133 654 q 128 596 129 615 q 126 556 126 576 l 126 535 q 278 574 204 574 q 387 557 332 574 q 485 505 442 540 q 557 416 529 469 q 585 289 585 363 q 556 149 585 206 q 481 57 528 92 q 376 7 435 22 q 260 -8 318 -8 q 185 1 224 -8 q 116 33 147 11 q 65 90 85 56 q 44 175 44 125 q 63 239 44 211 q 113 267 81 267 q 153 249 136 267 q 169 203 169 231 q 148 154 169 164 q 100 144 126 144 q 86 136 89 144 q 83 117 83 128 q 103 67 83 88 q 151 35 124 47 q 207 19 178 24 q 253 14 236 14 q 333 36 299 14 q 390 95 367 58 q 424 179 413 132 q 435 278 435 226 q 426 378 435 329 q 396 464 417 426 q 341 524 375 501 q 257 547 307 547 q 178 533 215 547 q 107 488 140 519 l 94 496 z "},"6":{"ha":631,"x_min":51,"x_max":586,"o":"m 528 931 q 397 876 453 910 q 306 799 342 843 q 208 542 231 706 q 343 588 283 588 q 518 510 449 588 q 586 308 586 429 q 507 86 586 179 q 322 -7 432 -7 q 131 97 204 -7 q 51 360 51 199 q 94 583 51 469 q 148 693 114 642 q 229 796 182 744 q 525 950 317 896 l 528 931 m 326 14 q 419 81 381 14 q 461 299 457 149 q 329 561 453 554 q 214 479 243 561 q 194 396 203 442 q 186 301 186 350 q 223 81 192 149 q 326 14 254 14 z "},"7":{"ha":631,"x_min":44,"x_max":606,"o":"m 44 703 q 53 788 50 747 q 61 874 57 829 q 65 901 63 888 q 68 926 67 914 l 606 926 l 453 550 l 454 550 q 433 497 446 531 q 403 421 419 463 q 372 334 388 379 q 342 247 356 289 q 321 172 329 206 q 313 119 313 138 q 322 106 313 106 q 333 108 325 106 q 350 114 340 114 q 387 96 372 114 q 401 53 401 78 q 349 -8 401 -8 q 297 24 313 -8 q 282 94 282 56 q 294 178 282 124 q 325 299 306 232 q 367 438 344 365 q 413 578 390 511 q 455 699 436 644 q 485 782 474 753 l 92 782 q 75 746 81 768 q 65 706 69 724 l 65 703 l 44 703 z "},"8":{"ha":631,"x_min":46,"x_max":589,"o":"m 261 506 q 198 534 229 517 q 141 576 167 551 q 99 633 115 600 q 83 710 83 665 q 105 807 83 765 q 161 876 126 849 q 238 917 196 903 q 322 931 281 931 q 403 917 363 931 q 477 878 444 904 q 531 811 510 851 q 551 715 551 771 q 533 637 551 671 q 486 576 515 603 q 422 531 457 550 q 351 497 386 511 q 434 458 392 481 q 510 403 476 435 q 567 332 544 372 q 589 239 589 292 q 563 128 589 175 q 498 51 538 82 q 409 6 458 21 q 314 -8 360 -8 q 220 5 268 -8 q 134 46 172 18 q 71 119 96 74 q 46 228 46 164 q 65 323 46 282 q 116 395 85 364 q 186 449 147 426 q 263 488 225 471 l 261 506 m 322 507 q 376 528 357 507 q 406 582 396 550 q 417 651 415 614 q 419 718 419 688 q 416 781 419 747 q 402 842 413 814 q 372 890 392 871 q 322 910 353 910 q 267 892 289 910 q 232 847 244 875 q 215 785 219 819 q 210 718 210 751 q 213 645 210 682 q 226 577 215 608 q 260 526 238 546 q 322 507 282 507 m 319 485 q 247 463 274 485 q 205 405 219 440 q 186 326 190 369 q 182 240 182 282 q 187 153 182 194 q 206 81 192 113 q 249 31 221 50 q 322 13 276 13 q 390 31 364 13 q 431 78 415 49 q 451 148 446 108 q 457 229 457 188 q 453 316 457 271 q 435 399 449 361 q 394 460 421 436 q 319 485 367 485 z "},"9":{"ha":631,"x_min":47,"x_max":582,"o":"m 107 -7 q 238 47 183 14 q 329 125 293 81 q 390 233 365 169 q 425 381 414 297 q 292 336 351 336 q 115 414 186 336 q 65 503 82 454 q 47 615 47 553 q 126 838 47 742 q 311 931 203 931 q 504 826 429 931 q 582 564 582 721 q 540 339 582 447 q 404 128 497 231 q 111 -26 311 28 l 107 -7 m 308 910 q 215 842 253 910 q 172 625 178 775 q 304 363 182 369 q 419 444 392 363 q 441 526 433 481 q 447 622 449 572 q 410 842 442 775 q 308 910 379 910 z "},"\u0000":{"ha":0,"x_min":0,"x_max":0,"o":""},"\r":{"ha":292,"x_min":0,"x_max":0,"o":""}," ":{"ha":535,"x_min":0,"x_max":0,"o":""},"E":{"ha":775,"x_min":38,"x_max":735,"o":"m 275 28 l 410 28 q 528 31 474 28 q 624 58 583 35 q 688 131 664 81 q 711 274 711 181 l 735 274 l 735 0 l 38 0 l 38 24 l 107 24 l 107 903 l 38 903 l 38 926 l 733 926 l 735 699 l 711 699 q 672 816 700 775 q 602 876 643 857 q 509 897 561 894 q 397 899 457 899 l 275 899 l 275 489 l 311 489 q 387 492 354 489 q 442 510 419 494 q 475 558 464 525 q 488 649 486 590 l 510 649 l 510 299 l 488 299 q 477 383 486 351 q 451 430 468 414 q 411 451 435 446 q 357 456 388 456 l 275 456 l 275 28 z "},"F":{"ha":707,"x_min":38,"x_max":681,"o":"m 681 682 l 656 682 q 633 809 653 764 q 580 875 614 854 q 499 899 546 896 q 397 903 453 903 l 267 903 l 267 490 l 313 490 q 396 492 360 490 q 456 510 432 494 q 492 560 481 526 q 504 660 504 594 l 526 660 l 526 296 l 504 296 q 492 383 503 350 q 461 433 481 415 q 415 456 442 450 q 356 461 389 461 l 317 461 q 292 460 306 461 q 267 460 278 460 l 267 24 l 349 24 l 349 0 l 38 0 l 38 24 l 106 24 l 106 903 l 38 903 l 38 926 l 679 926 l 681 682 z "},"G":{"ha":840,"x_min":57,"x_max":838,"o":"m 697 629 l 669 629 q 647 729 663 681 q 606 815 631 778 q 544 875 581 853 q 461 897 508 897 q 340 852 385 897 q 273 740 296 807 q 243 598 250 674 q 235 461 236 522 q 236 375 233 422 q 247 280 239 328 q 270 186 256 232 q 308 105 285 140 q 365 48 332 69 q 443 26 399 26 q 550 64 506 26 q 594 185 594 101 l 594 415 l 513 415 l 513 439 l 838 439 l 838 415 l 757 415 l 754 7 q 722 54 738 43 q 690 62 707 65 q 652 47 672 58 q 607 28 632 36 q 524 -1 567 11 q 436 -12 482 -12 q 281 21 350 -12 q 161 115 211 54 q 84 260 111 176 q 57 447 57 344 q 84 632 57 543 q 161 788 111 721 q 280 896 211 856 q 432 936 349 936 q 493 925 465 936 q 546 901 521 914 q 593 876 571 888 q 639 865 615 865 q 664 878 658 865 q 671 911 669 892 l 697 911 l 697 629 z "},"H":{"ha":942,"x_min":38,"x_max":914,"o":"m 286 458 l 286 24 l 376 24 l 376 0 l 38 0 l 38 24 l 121 24 l 114 903 l 38 903 l 38 926 l 376 926 l 376 903 l 286 903 l 286 488 l 663 488 l 663 903 l 575 903 l 575 926 l 914 926 l 914 903 l 826 903 l 826 24 l 914 24 l 914 0 l 575 0 l 575 24 l 663 24 l 663 458 l 286 458 z "},"I":{"ha":428,"x_min":43,"x_max":389,"o":"m 43 926 l 389 926 l 389 903 l 289 903 l 289 24 l 389 24 l 389 0 l 43 0 l 43 24 l 131 24 l 131 903 l 43 903 l 43 926 z "},"J":{"ha":442,"x_min":31,"x_max":418,"o":"m 418 903 l 331 903 l 331 154 q 321 54 331 100 q 290 -25 311 8 q 234 -78 268 -58 q 153 -97 200 -97 q 108 -90 131 -97 q 69 -69 86 -83 q 41 -34 51 -56 q 31 17 31 -12 q 47 73 31 49 q 92 97 63 97 q 124 79 113 97 q 136 33 136 61 q 120 -6 136 6 q 76 -31 104 -18 q 146 -71 114 -71 q 188 -50 171 -71 q 206 15 206 -29 q 201 46 206 31 q 190 78 197 61 q 176 124 182 99 q 169 172 169 149 l 169 903 l 75 903 l 75 926 l 418 926 l 418 903 z "},"K":{"ha":832,"x_min":38,"x_max":846,"o":"m 764 24 l 846 24 l 846 0 l 479 0 l 479 24 l 576 24 l 288 474 l 278 446 l 278 24 l 356 24 l 356 0 l 38 0 l 38 24 l 118 24 l 118 903 l 38 903 l 38 926 l 350 926 l 350 903 l 278 903 l 278 483 l 557 788 l 557 786 q 615 875 615 849 q 602 897 615 892 q 563 903 589 903 l 506 903 l 506 926 l 825 926 l 825 903 q 657 857 715 908 q 542 735 604 804 q 408 583 479 665 l 764 24 z "},"L":{"ha":750,"x_min":38,"x_max":722,"o":"m 722 307 l 722 0 l 38 0 l 38 24 l 125 24 l 125 903 l 38 903 l 38 926 l 379 926 l 379 903 l 282 903 l 282 24 l 444 24 q 556 30 508 24 q 636 64 604 36 q 684 149 668 92 q 700 307 700 206 l 722 307 z "},"M":{"ha":992,"x_min":24,"x_max":964,"o":"m 24 25 l 29 25 l 29 33 l 24 25 m 29 0 l 29 25 l 46 25 q 108 29 81 24 q 139 72 135 35 q 142 124 140 85 q 144 220 143 164 q 144 345 144 276 q 144 485 144 414 q 144 635 144 561 q 142 768 143 710 q 140 863 142 826 q 135 903 138 900 l 33 903 l 33 926 l 301 926 l 519 300 l 736 926 l 964 926 l 964 903 l 889 903 l 889 24 l 964 24 l 964 0 l 643 0 l 643 25 l 721 25 l 722 767 l 711 769 q 583 392 647 581 q 451 15 518 204 l 179 786 l 168 783 l 168 151 q 168 94 168 111 q 171 67 168 78 q 183 41 172 50 q 210 28 194 32 q 244 24 226 24 q 278 24 261 24 l 288 24 l 288 0 l 29 0 z "},"N":{"ha":869,"x_min":29,"x_max":851,"o":"m 29 24 q 94 26 71 24 q 128 40 118 28 q 141 76 139 51 q 143 146 143 100 l 143 885 l 125 903 l 29 903 l 29 926 l 308 926 l 711 265 l 711 788 q 709 856 711 832 q 699 890 707 879 q 674 901 690 900 q 631 903 658 903 l 600 903 l 600 926 l 851 926 l 851 903 l 819 903 q 775 901 792 903 q 750 890 758 900 q 740 856 742 879 q 738 788 738 832 l 738 -7 l 668 -7 l 169 818 l 169 169 q 171 84 169 114 q 183 41 172 54 q 217 26 193 28 q 285 24 240 24 l 285 0 l 29 0 l 29 24 z "},"O":{"ha":826,"x_min":57,"x_max":778,"o":"m 418 944 q 563 902 497 944 q 677 791 629 860 q 751 635 725 722 q 778 461 778 549 q 751 287 778 372 q 677 134 725 201 q 563 25 629 67 q 418 -17 497 -17 q 271 26 338 -17 q 157 138 204 68 q 83 294 110 207 q 57 472 57 382 q 85 643 57 558 q 163 794 114 728 q 278 903 213 861 q 418 944 343 944 m 421 922 q 344 899 376 922 q 290 838 313 876 q 255 752 268 800 q 234 653 242 704 q 224 553 226 603 q 221 465 221 504 q 223 376 221 425 q 232 276 225 326 q 251 176 239 225 q 285 90 264 128 q 339 28 307 51 q 417 6 371 6 q 494 29 463 6 q 547 91 526 53 q 579 178 568 129 q 596 278 590 228 q 603 378 601 329 q 604 467 604 428 q 602 549 604 501 q 593 646 600 596 q 574 746 586 696 q 542 835 563 796 q 492 898 521 874 q 421 922 463 922 z "},"P":{"ha":715,"x_min":38,"x_max":693,"o":"m 279 24 l 368 24 l 368 0 l 38 0 l 38 24 l 121 24 l 121 903 l 38 903 l 38 926 l 363 926 q 474 917 415 926 q 581 879 532 907 q 661 801 629 851 q 693 672 693 751 q 665 549 693 600 q 592 467 636 499 q 495 422 549 436 q 390 407 442 407 q 335 411 363 407 q 281 435 308 415 l 279 24 m 281 461 q 365 433 318 433 q 439 450 406 433 q 496 497 472 467 q 532 568 519 528 q 544 657 544 608 q 528 771 544 724 q 482 848 513 818 q 409 892 451 878 q 315 906 367 906 q 302 904 311 906 q 282 901 293 903 l 281 461 z "},"Q":{"ha":826,"x_min":57,"x_max":778,"o":"m 493 -143 q 503 -199 493 -178 q 529 -233 513 -221 q 567 -249 546 -244 q 613 -253 589 -253 q 644 -251 629 -253 q 674 -249 658 -250 l 674 -275 q 640 -277 654 -276 q 606 -278 625 -278 q 557 -274 588 -278 q 494 -262 526 -269 q 432 -246 461 -256 q 390 -224 403 -236 q 365 -187 374 -210 q 353 -137 357 -164 q 349 -84 350 -111 q 349 -35 349 -57 l 349 -11 q 228 59 282 11 q 135 171 174 107 q 77 311 97 235 q 57 468 57 388 q 85 640 57 554 q 161 792 113 725 q 275 902 210 860 q 417 944 340 944 q 562 902 496 944 q 676 791 628 860 q 751 636 724 722 q 778 461 778 550 q 758 308 778 382 q 701 171 738 233 q 612 61 664 108 q 494 -11 560 14 l 493 -143 m 421 922 q 342 899 375 922 q 287 840 310 876 q 250 754 264 803 q 228 655 236 706 q 219 555 221 604 q 217 465 217 506 q 219 375 217 425 q 230 274 222 325 q 252 175 238 224 q 290 89 267 126 q 346 28 313 51 q 425 6 379 6 q 497 30 467 6 q 547 94 526 54 q 580 183 568 133 q 598 285 592 233 q 606 383 604 336 q 608 465 608 431 q 606 549 608 501 q 595 648 603 597 q 575 748 588 699 q 542 836 563 797 q 491 899 521 875 q 421 922 461 922 z "},"R":{"ha":810,"x_min":38,"x_max":783,"o":"m 267 24 l 351 24 l 351 0 l 38 0 l 38 24 l 114 24 l 114 903 l 38 903 l 38 926 l 439 926 q 529 915 485 926 q 608 878 574 904 q 663 810 642 853 q 685 704 685 768 q 670 619 685 656 q 631 558 656 583 q 572 515 606 532 q 501 490 539 499 l 501 475 q 592 426 560 460 q 642 349 625 392 q 663 258 658 306 q 668 167 667 210 q 672 109 669 136 q 679 62 674 82 q 696 30 685 42 q 726 18 707 18 q 750 22 739 18 q 772 29 761 25 q 775 31 774 29 l 783 10 q 737 -6 760 -1 q 690 -10 714 -10 q 594 8 629 -10 q 541 58 560 26 q 516 135 522 90 q 506 233 510 179 q 503 268 504 250 q 499 306 501 286 q 470 399 492 365 q 417 448 449 432 q 347 467 386 464 q 267 471 308 471 l 267 24 m 267 903 l 267 493 l 311 493 q 388 504 350 493 q 456 540 426 515 q 503 602 485 564 q 521 696 521 640 q 504 799 521 758 q 458 862 488 839 q 390 894 429 885 q 307 903 351 903 l 267 903 z "},"S":{"ha":653,"x_min":64,"x_max":606,"o":"m 71 331 l 92 331 q 114 202 97 260 q 162 103 131 144 q 240 38 193 61 q 353 15 288 15 q 426 28 393 15 q 480 63 458 40 q 509 118 501 86 q 507 188 517 150 q 453 253 496 228 q 354 304 411 278 q 255 353 306 326 q 161 419 204 379 q 91 514 118 458 q 64 650 64 569 q 65 678 64 663 q 68 708 65 693 q 144 876 83 821 q 310 936 206 931 q 407 918 368 938 q 471 881 446 899 q 510 861 494 861 q 533 880 529 861 q 538 915 538 899 l 560 915 l 560 636 l 536 636 q 510 748 526 697 q 466 834 493 799 q 400 889 439 869 q 307 908 361 908 q 238 899 271 908 q 180 869 204 889 q 142 817 156 849 q 132 740 129 785 q 151 676 135 703 q 194 628 168 649 q 254 593 221 608 q 324 564 288 578 q 416 523 369 546 q 502 466 463 500 q 569 383 542 432 q 603 265 596 335 q 587 149 606 201 q 534 60 568 97 q 452 2 500 22 q 349 -18 404 -18 q 253 -2 294 -18 q 181 29 211 14 q 149 45 164 39 q 121 51 135 51 q 99 29 106 51 q 92 -10 93 7 l 71 -10 l 71 331 z "},"T":{"ha":731,"x_min":18,"x_max":717,"o":"m 288 903 l 268 903 q 158 892 201 903 q 90 853 115 882 q 53 776 64 825 q 43 647 43 726 l 18 647 q 22 788 21 719 q 25 926 22 856 l 713 926 q 715 788 714 856 q 717 647 715 719 l 694 647 q 683 783 694 732 q 645 860 672 833 q 572 895 618 888 q 451 903 525 903 l 451 24 l 546 24 l 546 0 l 189 0 l 189 24 l 288 24 l 288 903 z "},"U":{"ha":865,"x_min":25,"x_max":856,"o":"m 856 903 l 833 903 q 788 901 806 903 q 760 890 771 900 q 747 856 750 879 q 743 789 743 832 l 743 315 q 670 58 743 135 q 451 -19 597 -19 q 351 -12 406 -19 q 247 16 296 -6 q 160 76 197 38 q 115 179 124 115 q 113 218 113 194 q 113 269 113 242 l 113 903 l 25 903 l 25 926 l 376 926 l 376 903 l 288 903 l 288 304 q 295 187 288 240 q 324 94 303 133 q 383 33 346 56 q 479 11 421 11 q 588 34 543 11 q 660 99 633 57 q 700 202 688 142 q 713 336 713 263 l 713 789 q 708 857 713 833 q 692 892 703 881 q 663 904 681 903 q 618 904 644 906 q 603 903 611 904 q 586 903 596 903 l 586 926 l 856 926 l 856 903 z "},"V":{"ha":726,"x_min":-17,"x_max":765,"o":"m -17 926 l 325 926 l 325 903 l 236 903 l 429 264 q 504 489 474 396 q 556 646 535 582 q 588 748 576 710 q 606 808 600 786 q 613 841 611 831 q 614 858 614 851 q 603 885 614 876 q 577 899 593 894 q 544 903 561 903 q 514 903 526 903 l 510 903 l 510 926 l 765 926 l 765 903 l 754 903 q 703 901 721 903 q 674 888 685 899 q 654 856 663 878 q 633 794 646 833 l 361 -36 l 57 903 l -17 903 l -17 926 z "},"W":{"ha":1021,"x_min":-18,"x_max":1064,"o":"m -18 926 l 760 926 l 760 903 q 691 896 717 903 q 650 873 665 889 q 625 831 635 857 q 606 765 615 804 l 583 682 l 710 233 q 733 300 719 261 q 756 368 746 339 q 786 460 769 410 q 820 563 803 511 q 853 663 838 614 q 881 753 868 713 q 900 823 893 794 q 907 861 907 851 q 897 887 907 878 q 872 899 886 896 q 842 903 857 903 q 818 903 828 903 l 817 903 l 817 926 l 1064 926 l 1064 903 q 1000 901 1022 903 q 965 888 978 899 q 942 855 951 878 q 919 792 933 832 l 913 771 l 654 -32 l 632 -32 l 501 424 l 372 -32 q 355 -33 364 -32 q 339 -33 346 -33 l 51 903 l -18 903 l -18 926 m 485 461 l 349 903 l 207 903 l 413 218 l 485 461 m 571 717 q 578 742 572 719 q 592 790 585 764 q 606 840 600 817 q 613 869 613 864 q 606 888 613 882 q 591 898 600 894 q 573 902 582 901 q 558 903 564 903 l 518 903 l 571 717 z "},"X":{"ha":775,"x_min":-21,"x_max":804,"o":"m -21 24 l -7 24 q 54 25 21 22 q 114 50 88 28 q 138 78 124 58 q 176 141 151 99 q 238 254 200 183 q 332 435 275 325 l 110 903 l 36 903 l 36 926 l 372 926 l 372 903 l 288 903 l 438 593 q 514 732 486 681 q 556 812 542 783 q 575 853 571 840 q 579 874 579 865 q 565 899 579 894 q 540 903 551 903 l 476 903 l 476 926 l 743 926 l 743 903 l 736 903 q 684 899 713 903 q 636 879 656 896 q 617 857 628 871 q 586 810 606 843 q 535 719 567 778 q 451 565 503 661 l 715 24 l 804 24 l 804 0 l 442 0 l 442 24 l 535 24 l 346 407 l 235 194 q 201 131 214 156 q 181 91 189 107 q 171 67 174 75 q 168 54 168 60 q 175 35 168 42 q 192 26 182 29 q 210 24 201 24 q 224 24 219 24 l 279 24 l 279 0 l -21 0 l -21 24 z "},"Y":{"ha":671,"x_min":-32,"x_max":708,"o":"m 463 926 l 708 926 l 708 904 l 679 904 q 647 901 660 904 q 624 887 635 897 q 605 857 614 876 q 583 807 596 838 l 410 369 l 410 24 l 499 24 l 499 0 l 172 0 l 172 24 l 260 24 l 260 338 l 42 903 l -32 903 l -32 926 l 300 926 l 300 903 l 213 903 l 397 422 l 532 751 q 542 776 536 760 q 553 809 547 792 q 563 842 558 826 q 567 868 567 858 q 545 898 567 892 q 499 904 524 904 q 481 903 489 904 q 465 903 472 903 l 463 903 l 463 926 z "},"Z":{"ha":721,"x_min":44,"x_max":692,"o":"m 44 0 l 490 899 l 431 899 q 274 891 336 899 q 181 865 213 883 l 181 867 q 113 724 113 832 l 113 669 l 90 669 l 90 926 l 689 926 l 232 24 l 333 24 q 487 33 424 24 q 590 65 550 43 q 649 122 631 88 q 668 206 668 157 l 668 268 l 692 268 l 692 0 l 44 0 z "},"a":{"ha":744,"x_min":-7,"x_max":763,"o":"m -7 24 q 43 28 24 24 q 75 43 63 32 q 96 76 88 54 q 115 131 104 97 q 236 535 175 333 q 358 940 297 738 l 406 940 l 701 24 l 763 24 l 763 0 l 431 0 l 431 24 l 524 24 l 435 303 l 193 303 l 183 275 q 167 222 176 254 q 148 158 157 190 q 132 100 139 126 q 125 64 125 74 q 138 39 125 47 q 169 27 151 31 q 206 24 188 24 q 236 24 225 24 l 239 24 l 239 0 l -7 0 l -7 24 m 200 326 l 428 326 l 311 690 l 200 326 z "},"b":{"ha":743,"x_min":38,"x_max":697,"o":"m 38 926 l 317 926 q 429 922 368 926 q 543 897 490 918 q 631 830 596 875 q 667 703 667 785 q 624 567 667 621 q 515 496 582 514 l 515 482 q 586 453 553 471 q 644 407 619 435 q 683 341 669 379 q 697 251 697 303 q 668 118 697 168 q 593 42 639 68 q 490 8 547 15 q 379 0 433 0 l 38 0 l 38 24 l 113 24 l 113 903 l 38 903 l 38 926 m 267 504 l 286 504 q 365 510 325 504 q 439 538 406 517 q 493 596 472 558 q 514 696 514 633 q 497 784 514 744 q 451 851 479 824 q 388 894 424 879 q 315 908 353 908 q 292 906 304 908 q 267 901 281 904 l 267 504 m 267 24 l 343 24 q 481 81 428 24 q 533 242 533 139 q 514 365 533 318 q 459 438 494 413 q 375 473 424 464 q 267 482 326 482 l 267 24 z "},"c":{"ha":765,"x_min":57,"x_max":693,"o":"m 672 0 q 671 26 672 13 q 665 52 669 40 q 653 72 661 64 q 633 81 646 81 q 615 74 626 81 q 588 56 603 67 q 516 9 560 33 q 413 -15 472 -15 q 265 22 331 -15 q 153 121 199 58 q 82 267 107 183 q 57 446 57 351 q 81 630 57 540 q 151 788 106 719 q 264 899 197 857 q 417 940 331 940 q 483 928 454 940 q 538 903 513 917 q 585 877 563 889 q 632 865 607 865 q 657 874 649 865 q 668 903 665 883 l 693 903 l 693 622 l 665 622 q 644 723 663 672 q 596 815 625 774 q 527 881 567 856 q 443 907 488 907 q 367 883 399 907 q 313 821 335 860 q 277 733 290 782 q 256 633 264 683 q 247 533 249 582 q 244 446 244 483 q 253 302 244 375 q 286 169 261 229 q 357 70 311 108 q 478 32 403 32 q 551 62 518 32 q 610 137 585 92 q 651 234 635 182 q 672 331 667 286 l 693 331 l 693 0 l 672 0 z "},"d":{"ha":856,"x_min":38,"x_max":807,"o":"m 38 926 l 325 926 q 510 904 422 926 q 663 828 597 882 q 768 685 729 775 q 807 460 807 594 q 770 240 807 328 q 670 99 733 151 q 523 23 607 46 q 343 0 439 0 l 38 0 l 38 24 l 117 24 l 117 901 l 38 901 l 38 926 m 281 901 l 281 24 q 449 51 381 24 q 558 133 517 78 q 618 273 600 189 q 636 471 636 357 q 617 643 636 564 q 558 780 597 722 q 458 870 518 838 q 315 903 397 903 l 281 901 z "},"e":{"ha":775,"x_min":38,"x_max":735,"o":"m 275 28 l 410 28 q 528 31 474 28 q 624 58 583 35 q 688 131 664 81 q 711 274 711 181 l 735 274 l 735 0 l 38 0 l 38 24 l 107 24 l 107 903 l 38 903 l 38 926 l 733 926 l 735 699 l 711 699 q 672 816 700 775 q 602 876 643 857 q 509 897 561 894 q 397 899 457 899 l 275 899 l 275 489 l 311 489 q 387 492 354 489 q 442 510 419 494 q 475 558 464 525 q 488 649 486 590 l 510 649 l 510 299 l 488 299 q 477 383 486 351 q 451 430 468 414 q 411 451 435 446 q 357 456 388 456 l 275 456 l 275 28 z "},"f":{"ha":707,"x_min":38,"x_max":681,"o":"m 681 682 l 656 682 q 633 809 653 764 q 580 875 614 854 q 499 899 546 896 q 397 903 453 903 l 267 903 l 267 490 l 313 490 q 396 492 360 490 q 456 510 432 494 q 492 560 481 526 q 504 660 504 594 l 526 660 l 526 296 l 504 296 q 492 383 503 350 q 461 433 481 415 q 415 456 442 450 q 356 461 389 461 l 317 461 q 292 460 306 461 q 267 460 278 460 l 267 24 l 349 24 l 349 0 l 38 0 l 38 24 l 106 24 l 106 903 l 38 903 l 38 926 l 679 926 l 681 682 z "},"g":{"ha":840,"x_min":57,"x_max":838,"o":"m 697 629 l 669 629 q 647 729 663 681 q 606 815 631 778 q 544 875 581 853 q 461 897 508 897 q 340 852 385 897 q 273 740 296 807 q 243 598 250 674 q 235 461 236 522 q 236 375 233 422 q 247 280 239 328 q 270 186 256 232 q 308 105 285 140 q 365 48 332 69 q 443 26 399 26 q 550 64 506 26 q 594 185 594 101 l 594 415 l 513 415 l 513 439 l 838 439 l 838 415 l 757 415 l 754 7 q 722 54 738 43 q 690 62 707 65 q 652 47 672 58 q 607 28 632 36 q 524 -1 567 11 q 436 -12 482 -12 q 281 21 350 -12 q 161 115 211 54 q 84 260 111 176 q 57 447 57 344 q 84 632 57 543 q 161 788 111 721 q 280 896 211 856 q 432 936 349 936 q 493 925 465 936 q 546 901 521 914 q 593 876 571 888 q 639 865 615 865 q 664 878 658 865 q 671 911 669 892 l 697 911 l 697 629 z "},"h":{"ha":942,"x_min":38,"x_max":914,"o":"m 286 458 l 286 24 l 376 24 l 376 0 l 38 0 l 38 24 l 121 24 l 114 903 l 38 903 l 38 926 l 376 926 l 376 903 l 286 903 l 286 488 l 663 488 l 663 903 l 575 903 l 575 926 l 914 926 l 914 903 l 826 903 l 826 24 l 914 24 l 914 0 l 575 0 l 575 24 l 663 24 l 663 458 l 286 458 z "},"i":{"ha":428,"x_min":43,"x_max":389,"o":"m 43 926 l 389 926 l 389 903 l 289 903 l 289 24 l 389 24 l 389 0 l 43 0 l 43 24 l 131 24 l 131 903 l 43 903 l 43 926 z "},"j":{"ha":442,"x_min":31,"x_max":418,"o":"m 418 903 l 331 903 l 331 154 q 321 54 331 100 q 290 -25 311 8 q 234 -78 268 -58 q 153 -97 200 -97 q 108 -90 131 -97 q 69 -69 86 -83 q 41 -34 51 -56 q 31 17 31 -12 q 47 73 31 49 q 92 97 63 97 q 124 79 113 97 q 136 33 136 61 q 120 -6 136 6 q 76 -31 104 -18 q 146 -71 114 -71 q 188 -50 171 -71 q 206 15 206 -29 q 201 46 206 31 q 190 78 197 61 q 176 124 182 99 q 169 172 169 149 l 169 903 l 75 903 l 75 926 l 418 926 l 418 903 z "},"k":{"ha":832,"x_min":38,"x_max":846,"o":"m 764 24 l 846 24 l 846 0 l 479 0 l 479 24 l 576 24 l 288 474 l 278 446 l 278 24 l 356 24 l 356 0 l 38 0 l 38 24 l 118 24 l 118 903 l 38 903 l 38 926 l 350 926 l 350 903 l 278 903 l 278 483 l 557 788 l 557 786 q 615 875 615 849 q 602 897 615 892 q 563 903 589 903 l 506 903 l 506 926 l 825 926 l 825 903 q 657 857 715 908 q 542 735 604 804 q 408 583 479 665 l 764 24 z "},"l":{"ha":750,"x_min":38,"x_max":722,"o":"m 722 307 l 722 0 l 38 0 l 38 24 l 125 24 l 125 903 l 38 903 l 38 926 l 379 926 l 379 903 l 282 903 l 282 24 l 444 24 q 556 30 508 24 q 636 64 604 36 q 684 149 668 92 q 700 307 700 206 l 722 307 z "},"m":{"ha":992,"x_min":24,"x_max":964,"o":"m 24 25 l 29 25 l 29 33 l 24 25 m 29 0 l 29 25 l 46 25 q 108 29 81 24 q 139 72 135 35 q 142 124 140 85 q 144 220 143 164 q 144 345 144 276 q 144 485 144 414 q 144 635 144 561 q 142 768 143 710 q 140 863 142 826 q 135 903 138 900 l 33 903 l 33 926 l 301 926 l 519 300 l 736 926 l 964 926 l 964 903 l 889 903 l 889 24 l 964 24 l 964 0 l 643 0 l 643 25 l 721 25 l 722 767 l 711 769 q 583 392 647 581 q 451 15 518 204 l 179 786 l 168 783 l 168 151 q 168 94 168 111 q 171 67 168 78 q 183 41 172 50 q 210 28 194 32 q 244 24 226 24 q 278 24 261 24 l 288 24 l 288 0 l 29 0 z "},"n":{"ha":869,"x_min":29,"x_max":851,"o":"m 29 24 q 94 26 71 24 q 128 40 118 28 q 141 76 139 51 q 143 146 143 100 l 143 885 l 125 903 l 29 903 l 29 926 l 308 926 l 711 265 l 711 788 q 709 856 711 832 q 699 890 707 879 q 674 901 690 900 q 631 903 658 903 l 600 903 l 600 926 l 851 926 l 851 903 l 819 903 q 775 901 792 903 q 750 890 758 900 q 740 856 742 879 q 738 788 738 832 l 738 -7 l 668 -7 l 169 818 l 169 169 q 171 84 169 114 q 183 41 172 54 q 217 26 193 28 q 285 24 240 24 l 285 0 l 29 0 l 29 24 z "},"o":{"ha":826,"x_min":57,"x_max":778,"o":"m 418 944 q 563 902 497 944 q 677 791 629 860 q 751 635 725 722 q 778 461 778 549 q 751 287 778 372 q 677 134 725 201 q 563 25 629 67 q 418 -17 497 -17 q 271 26 338 -17 q 157 138 204 68 q 83 294 110 207 q 57 472 57 382 q 85 643 57 558 q 163 794 114 728 q 278 903 213 861 q 418 944 343 944 m 421 922 q 344 899 376 922 q 290 838 313 876 q 255 752 268 800 q 234 653 242 704 q 224 553 226 603 q 221 465 221 504 q 223 376 221 425 q 232 276 225 326 q 251 176 239 225 q 285 90 264 128 q 339 28 307 51 q 417 6 371 6 q 494 29 463 6 q 547 91 526 53 q 579 178 568 129 q 596 278 590 228 q 603 378 601 329 q 604 467 604 428 q 602 549 604 501 q 593 646 600 596 q 574 746 586 696 q 542 835 563 796 q 492 898 521 874 q 421 922 463 922 z "},"p":{"ha":715,"x_min":38,"x_max":693,"o":"m 279 24 l 368 24 l 368 0 l 38 0 l 38 24 l 121 24 l 121 903 l 38 903 l 38 926 l 363 926 q 474 917 415 926 q 581 879 532 907 q 661 801 629 851 q 693 672 693 751 q 665 549 693 600 q 592 467 636 499 q 495 422 549 436 q 390 407 442 407 q 335 411 363 407 q 281 435 308 415 l 279 24 m 281 461 q 365 433 318 433 q 439 450 406 433 q 496 497 472 467 q 532 568 519 528 q 544 657 544 608 q 528 771 544 724 q 482 848 513 818 q 409 892 451 878 q 315 906 367 906 q 302 904 311 906 q 282 901 293 903 l 281 461 z "},"q":{"ha":826,"x_min":57,"x_max":778,"o":"m 493 -143 q 503 -199 493 -178 q 529 -233 513 -221 q 567 -249 546 -244 q 613 -253 589 -253 q 644 -251 629 -253 q 674 -249 658 -250 l 674 -275 q 640 -277 654 -276 q 606 -278 625 -278 q 557 -274 588 -278 q 494 -262 526 -269 q 432 -246 461 -256 q 390 -224 403 -236 q 365 -187 374 -210 q 353 -137 357 -164 q 349 -84 350 -111 q 349 -35 349 -57 l 349 -11 q 228 59 282 11 q 135 171 174 107 q 77 311 97 235 q 57 468 57 388 q 85 640 57 554 q 161 792 113 725 q 275 902 210 860 q 417 944 340 944 q 562 902 496 944 q 676 791 628 860 q 751 636 724 722 q 778 461 778 550 q 758 308 778 382 q 701 171 738 233 q 612 61 664 108 q 494 -11 560 14 l 493 -143 m 421 922 q 342 899 375 922 q 287 840 310 876 q 250 754 264 803 q 228 655 236 706 q 219 555 221 604 q 217 465 217 506 q 219 375 217 425 q 230 274 222 325 q 252 175 238 224 q 290 89 267 126 q 346 28 313 51 q 425 6 379 6 q 497 30 467 6 q 547 94 526 54 q 580 183 568 133 q 598 285 592 233 q 606 383 604 336 q 608 465 608 431 q 606 549 608 501 q 595 648 603 597 q 575 748 588 699 q 542 836 563 797 q 491 899 521 875 q 421 922 461 922 z "},"r":{"ha":810,"x_min":38,"x_max":783,"o":"m 267 24 l 351 24 l 351 0 l 38 0 l 38 24 l 114 24 l 114 903 l 38 903 l 38 926 l 439 926 q 529 915 485 926 q 608 878 574 904 q 663 810 642 853 q 685 704 685 768 q 670 619 685 656 q 631 558 656 583 q 572 515 606 532 q 501 490 539 499 l 501 475 q 592 426 560 460 q 642 349 625 392 q 663 258 658 306 q 668 167 667 210 q 672 109 669 136 q 679 62 674 82 q 696 30 685 42 q 726 18 707 18 q 750 22 739 18 q 772 29 761 25 q 775 31 774 29 l 783 10 q 737 -6 760 -1 q 690 -10 714 -10 q 594 8 629 -10 q 541 58 560 26 q 516 135 522 90 q 506 233 510 179 q 503 268 504 250 q 499 306 501 286 q 470 399 492 365 q 417 448 449 432 q 347 467 386 464 q 267 471 308 471 l 267 24 m 267 903 l 267 493 l 311 493 q 388 504 350 493 q 456 540 426 515 q 503 602 485 564 q 521 696 521 640 q 504 799 521 758 q 458 862 488 839 q 390 894 429 885 q 307 903 351 903 l 267 903 z "},"s":{"ha":653,"x_min":64,"x_max":606,"o":"m 71 331 l 92 331 q 114 202 97 260 q 162 103 131 144 q 240 38 193 61 q 353 15 288 15 q 426 28 393 15 q 480 63 458 40 q 509 118 501 86 q 507 188 517 150 q 453 253 496 228 q 354 304 411 278 q 255 353 306 326 q 161 419 204 379 q 91 514 118 458 q 64 650 64 569 q 65 678 64 663 q 68 708 65 693 q 144 876 83 821 q 310 936 206 931 q 407 918 368 938 q 471 881 446 899 q 510 861 494 861 q 533 880 529 861 q 538 915 538 899 l 560 915 l 560 636 l 536 636 q 510 748 526 697 q 466 834 493 799 q 400 889 439 869 q 307 908 361 908 q 238 899 271 908 q 180 869 204 889 q 142 817 156 849 q 132 740 129 785 q 151 676 135 703 q 194 628 168 649 q 254 593 221 608 q 324 564 288 578 q 416 523 369 546 q 502 466 463 500 q 569 383 542 432 q 603 265 596 335 q 587 149 606 201 q 534 60 568 97 q 452 2 500 22 q 349 -18 404 -18 q 253 -2 294 -18 q 181 29 211 14 q 149 45 164 39 q 121 51 135 51 q 99 29 106 51 q 92 -10 93 7 l 71 -10 l 71 331 z "},"t":{"ha":731,"x_min":18,"x_max":717,"o":"m 288 903 l 268 903 q 158 892 201 903 q 90 853 115 882 q 53 776 64 825 q 43 647 43 726 l 18 647 q 22 788 21 719 q 25 926 22 856 l 713 926 q 715 788 714 856 q 717 647 715 719 l 694 647 q 683 783 694 732 q 645 860 672 833 q 572 895 618 888 q 451 903 525 903 l 451 24 l 546 24 l 546 0 l 189 0 l 189 24 l 288 24 l 288 903 z "},"u":{"ha":865,"x_min":25,"x_max":856,"o":"m 856 903 l 833 903 q 788 901 806 903 q 760 890 771 900 q 747 856 750 879 q 743 789 743 832 l 743 315 q 670 58 743 135 q 451 -19 597 -19 q 351 -12 406 -19 q 247 16 296 -6 q 160 76 197 38 q 115 179 124 115 q 113 218 113 194 q 113 269 113 242 l 113 903 l 25 903 l 25 926 l 376 926 l 376 903 l 288 903 l 288 304 q 295 187 288 240 q 324 94 303 133 q 383 33 346 56 q 479 11 421 11 q 588 34 543 11 q 660 99 633 57 q 700 202 688 142 q 713 336 713 263 l 713 789 q 708 857 713 833 q 692 892 703 881 q 663 904 681 903 q 618 904 644 906 q 603 903 611 904 q 586 903 596 903 l 586 926 l 856 926 l 856 903 z "},"v":{"ha":726,"x_min":-17,"x_max":765,"o":"m -17 926 l 325 926 l 325 903 l 236 903 l 429 264 q 504 489 474 396 q 556 646 535 582 q 588 748 576 710 q 606 808 600 786 q 613 841 611 831 q 614 858 614 851 q 603 885 614 876 q 577 899 593 894 q 544 903 561 903 q 514 903 526 903 l 510 903 l 510 926 l 765 926 l 765 903 l 754 903 q 703 901 721 903 q 674 888 685 899 q 654 856 663 878 q 633 794 646 833 l 361 -36 l 57 903 l -17 903 l -17 926 z "},"w":{"ha":1021,"x_min":-18,"x_max":1064,"o":"m -18 926 l 760 926 l 760 903 q 691 896 717 903 q 650 873 665 889 q 625 831 635 857 q 606 765 615 804 l 583 682 l 710 233 q 733 300 719 261 q 756 368 746 339 q 786 460 769 410 q 820 563 803 511 q 853 663 838 614 q 881 753 868 713 q 900 823 893 794 q 907 861 907 851 q 897 887 907 878 q 872 899 886 896 q 842 903 857 903 q 818 903 828 903 l 817 903 l 817 926 l 1064 926 l 1064 903 q 1000 901 1022 903 q 965 888 978 899 q 942 855 951 878 q 919 792 933 832 l 913 771 l 654 -32 l 632 -32 l 501 424 l 372 -32 q 355 -33 364 -32 q 339 -33 346 -33 l 51 903 l -18 903 l -18 926 m 485 461 l 349 903 l 207 903 l 413 218 l 485 461 m 571 717 q 578 742 572 719 q 592 790 585 764 q 606 840 600 817 q 613 869 613 864 q 606 888 613 882 q 591 898 600 894 q 573 902 582 901 q 558 903 564 903 l 518 903 l 571 717 z "},"x":{"ha":775,"x_min":-21,"x_max":804,"o":"m -21 24 l -7 24 q 54 25 21 22 q 114 50 88 28 q 138 78 124 58 q 176 141 151 99 q 238 254 200 183 q 332 435 275 325 l 110 903 l 36 903 l 36 926 l 372 926 l 372 903 l 288 903 l 438 593 q 514 732 486 681 q 556 812 542 783 q 575 853 571 840 q 579 874 579 865 q 565 899 579 894 q 540 903 551 903 l 476 903 l 476 926 l 743 926 l 743 903 l 736 903 q 684 899 713 903 q 636 879 656 896 q 617 857 628 871 q 586 810 606 843 q 535 719 567 778 q 451 565 503 661 l 715 24 l 804 24 l 804 0 l 442 0 l 442 24 l 535 24 l 346 407 l 235 194 q 201 131 214 156 q 181 91 189 107 q 171 67 174 75 q 168 54 168 60 q 175 35 168 42 q 192 26 182 29 q 210 24 201 24 q 224 24 219 24 l 279 24 l 279 0 l -21 0 l -21 24 z "},"y":{"ha":671,"x_min":-32,"x_max":708,"o":"m 463 926 l 708 926 l 708 904 l 679 904 q 647 901 660 904 q 624 887 635 897 q 605 857 614 876 q 583 807 596 838 l 410 369 l 410 24 l 499 24 l 499 0 l 172 0 l 172 24 l 260 24 l 260 338 l 42 903 l -32 903 l -32 926 l 300 926 l 300 903 l 213 903 l 397 422 l 532 751 q 542 776 536 760 q 553 809 547 792 q 563 842 558 826 q 567 868 567 858 q 545 898 567 892 q 499 904 524 904 q 481 903 489 904 q 465 903 472 903 l 463 903 l 463 926 z "},"z":{"ha":721,"x_min":44,"x_max":692,"o":"m 44 0 l 490 899 l 431 899 q 274 891 336 899 q 181 865 213 883 l 181 867 q 113 724 113 832 l 113 669 l 90 669 l 90 926 l 689 926 l 232 24 l 333 24 q 487 33 424 24 q 590 65 550 43 q 649 122 631 88 q 668 206 668 157 l 668 268 l 692 268 l 692 0 l 44 0 z "},"D":{"ha":856,"x_min":38,"x_max":807,"o":"m 38 926 l 325 926 q 510 904 422 926 q 663 828 597 882 q 768 685 729 775 q 807 460 807 594 q 770 240 807 328 q 670 99 733 151 q 523 23 607 46 q 343 0 439 0 l 38 0 l 38 24 l 117 24 l 117 901 l 38 901 l 38 926 m 281 901 l 281 24 q 449 51 381 24 q 558 133 517 78 q 618 273 600 189 q 636 471 636 357 q 617 643 636 564 q 558 780 597 722 q 458 870 518 838 q 315 903 397 903 l 281 901 z "},"!":{"ha":321,"x_min":75,"x_max":247,"o":"m 140 221 q 113 554 131 403 q 75 815 96 706 q 104 856 94 840 q 126 897 114 871 l 143 928 q 163 935 151 939 q 181 921 174 932 q 193 899 189 907 q 217 855 207 874 q 247 819 228 836 q 223 669 233 738 q 204 531 213 600 q 190 388 196 463 q 179 221 183 313 l 140 221 m 163 128 q 203 107 186 128 q 221 57 221 86 q 203 5 221 25 q 161 -15 186 -15 q 120 6 138 -15 q 103 57 103 26 q 121 107 103 86 q 163 128 139 128 z "},",":{"ha":290,"x_min":57,"x_max":228,"o":"m 125 -215 q 149 -181 136 -201 q 174 -138 163 -161 q 192 -90 185 -115 q 199 -36 199 -64 q 192 14 199 -12 q 168 68 185 40 l 158 60 q 156 7 169 26 q 111 -12 142 -12 q 72 6 88 -12 q 57 53 57 25 q 78 106 57 86 q 126 126 100 126 q 170 113 151 126 q 202 79 189 100 q 222 32 215 58 q 228 -21 228 6 q 223 -89 228 -60 q 207 -142 218 -118 q 179 -189 196 -167 q 139 -235 163 -211 l 125 -215 z "},".":{"ha":289,"x_min":89,"x_max":207,"o":"m 149 128 q 190 107 172 128 q 207 57 207 86 q 190 5 207 25 q 147 -15 172 -15 q 106 6 124 -15 q 89 57 89 26 q 107 107 89 86 q 149 128 125 128 z "},":":{"ha":289,"x_min":85,"x_max":206,"o":"m 146 131 q 188 110 169 131 q 206 60 206 89 q 188 8 206 28 q 146 -12 171 -12 q 103 8 121 -12 q 86 60 86 29 q 104 110 86 89 q 146 131 122 131 m 144 499 q 185 478 168 499 q 203 429 203 458 q 185 377 203 397 q 143 357 168 357 q 102 378 119 357 q 85 429 85 399 q 103 478 85 458 q 144 499 121 499 z "},";":{"ha":290,"x_min":57,"x_max":228,"o":"m 136 499 q 177 478 160 499 q 194 429 194 458 q 177 377 194 397 q 135 357 160 357 q 93 378 110 357 q 76 429 76 399 q 94 478 76 458 q 136 499 113 499 m 125 -215 q 149 -181 136 -201 q 174 -138 163 -161 q 192 -90 185 -115 q 199 -36 199 -64 q 192 14 199 -12 q 168 68 185 40 l 158 60 q 156 7 169 26 q 111 -12 142 -12 q 72 6 88 -12 q 57 53 57 25 q 78 106 57 86 q 126 126 100 126 q 170 113 151 126 q 202 79 189 100 q 222 32 215 58 q 228 -21 228 6 q 223 -89 228 -60 q 207 -142 218 -118 q 179 -189 196 -167 q 139 -235 163 -211 l 125 -215 z "},"?":{"ha":458,"x_min":64,"x_max":413,"o":"m 176 221 l 161 217 l 165 207 l 176 221 m 156 269 q 157 243 156 256 q 161 217 158 231 l 140 213 q 114 298 124 256 q 104 372 104 340 q 119 453 104 417 q 156 521 133 490 q 206 576 178 551 q 261 625 233 601 q 303 661 283 643 q 340 699 324 679 q 365 739 356 718 q 375 783 375 760 q 361 847 375 819 q 325 891 347 874 q 276 917 303 908 q 224 926 249 926 q 192 922 211 926 q 153 908 172 917 q 119 883 133 899 q 106 847 106 868 q 115 833 106 838 q 131 829 125 829 q 179 764 179 819 q 164 719 179 736 q 125 701 149 701 q 99 710 110 701 q 80 732 88 718 q 68 762 72 746 q 64 794 64 778 q 78 860 64 831 q 116 909 93 889 q 167 940 139 929 q 224 950 196 950 q 360 888 308 950 q 413 722 413 825 q 410 671 413 697 q 400 619 408 644 q 338 511 379 556 q 258 435 296 467 q 219 401 238 418 q 187 364 201 383 q 164 322 172 344 q 156 269 156 299 m 163 128 q 203 107 186 128 q 221 57 221 86 q 203 5 221 25 q 161 -15 185 -15 q 119 6 136 -15 q 103 57 103 26 q 120 107 103 86 q 163 128 138 128 z "},"B":{"ha":743,"x_min":38,"x_max":697,"o":"m 38 926 l 317 926 q 429 922 368 926 q 543 897 490 918 q 631 830 596 875 q 667 703 667 785 q 624 567 667 621 q 515 496 582 514 l 515 482 q 586 453 553 471 q 644 407 619 435 q 683 341 669 379 q 697 251 697 303 q 668 118 697 168 q 593 42 639 68 q 490 8 547 15 q 379 0 433 0 l 38 0 l 38 24 l 113 24 l 113 903 l 38 903 l 38 926 m 267 504 l 286 504 q 365 510 325 504 q 439 538 406 517 q 493 596 472 558 q 514 696 514 633 q 497 784 514 744 q 451 851 479 824 q 388 894 424 879 q 315 908 353 908 q 292 906 304 908 q 267 901 281 904 l 267 504 m 267 24 l 343 24 q 481 81 428 24 q 533 242 533 139 q 514 365 533 318 q 459 438 494 413 q 375 473 424 464 q 267 482 326 482 l 267 24 z "},"C":{"ha":765,"x_min":57,"x_max":693,"o":"m 672 0 q 671 26 672 13 q 665 52 669 40 q 653 72 661 64 q 633 81 646 81 q 615 74 626 81 q 588 56 603 67 q 516 9 560 33 q 413 -15 472 -15 q 265 22 331 -15 q 153 121 199 58 q 82 267 107 183 q 57 446 57 351 q 81 630 57 540 q 151 788 106 719 q 264 899 197 857 q 417 940 331 940 q 483 928 454 940 q 538 903 513 917 q 585 877 563 889 q 632 865 607 865 q 657 874 649 865 q 668 903 665 883 l 693 903 l 693 622 l 665 622 q 644 723 663 672 q 596 815 625 774 q 527 881 567 856 q 443 907 488 907 q 367 883 399 907 q 313 821 335 860 q 277 733 290 782 q 256 633 264 683 q 247 533 249 582 q 244 446 244 483 q 253 302 244 375 q 286 169 261 229 q 357 70 311 108 q 478 32 403 32 q 551 62 518 32 q 610 137 585 92 q 651 234 635 182 q 672 331 667 286 l 693 331 l 693 0 l 672 0 z "},"A":{"ha":744,"x_min":-7,"x_max":763,"o":"m -7 24 q 43 28 24 24 q 75 43 63 32 q 96 76 88 54 q 115 131 104 97 q 236 535 175 333 q 358 940 297 738 l 406 940 l 701 24 l 763 24 l 763 0 l 431 0 l 431 24 l 524 24 l 435 303 l 193 303 l 183 275 q 167 222 176 254 q 148 158 157 190 q 132 100 139 126 q 125 64 125 74 q 138 39 125 47 q 169 27 151 31 q 206 24 188 24 q 236 24 225 24 l 239 24 l 239 0 l -7 0 l -7 24 m 200 326 l 428 326 l 311 690 l 200 326 z "}}}
